# xmcd CD database file
#
# Track frame offsets:
#	150
#	15405
#	31826
#	49071
#	63301
#	78313
#	95995
#	112280
#	128179
#	145667
#	159539
#
# Disc length: 2299 seconds
#
# Revision: 0
# Processed by: cddbd v1.5.2PL0 Copyright (c) Steve Scherf et al.
# Submitted via: CDex 1.70beta2
#
DISCID=9008f90b
DTITLE=Toby Keith - Big Dog Daddy
DYEAR=2007
DGENRE=Country
TTITLE0=Toby Keith - High Maintenance Woman
TTITLE1=Toby Keith - Love Me If You Can
TTITLE2=Toby Keith - White Rose
TTITLE3=Toby Keith - Get My Drink On
TTITLE4=Toby Keith - Wouldn't Wanna Be Ya
TTITLE5=Toby Keith - Big Dog Daddy
TTITLE6=Toby Keith - I Know She Hung The Moon
TTITLE7=Toby Keith - Pump Jack
TTITLE8=Toby Keith - Burnin' Moonlight
TTITLE9=Toby Keith - Walk It Off
TTITLE10=Toby Keith - Hit It
EXTD=YEAR: 2007
EXTT0=
EXTT1=
EXTT2=
EXTT3=
EXTT4=
EXTT5=
EXTT6=
EXTT7=
EXTT8=
EXTT9=
EXTT10=
PLAYORDER=
